<mxfile host="www.draw.io" modified="2019-12-05T08:24:00.265Z" agent="Mozilla/5.0 (Windows NT 6.1; Win64; x64) AppleWebKit/537.36 (KHTML, like Gecko) Chrome/77.0.3865.90 Safari/537.36" etag="7KjjRcZcGRj1hEmpu9i3" version="12.3.6" type="github" pages="1">
  <diagram id="qYqDt66bANYwKAUjIp7B" name="第 1 页">
    <mxGraphModel dx="854" dy="478" grid="1" gridSize="10" guides="1" tooltips="1" connect="1" arrows="1" fold="1" page="1" pageScale="1" pageWidth="827" pageHeight="1169" math="0" shadow="0">
      <root>
        <mxCell id="0"/>
        <mxCell id="1" parent="0"/>
        <mxCell id="28vUUWtY91V1V11K80DQ-142" value="" style="rounded=0;whiteSpace=wrap;html=1;shadow=0;dashed=1;strokeWidth=1;fontFamily=Verdana;fontSize=8;fillColor=#ffe6cc;strokeColor=#d79b00;" parent="1" vertex="1">
          <mxGeometry x="230" y="391" width="220" height="229" as="geometry"/>
        </mxCell>
        <mxCell id="28vUUWtY91V1V11K80DQ-86" value="" style="rounded=0;whiteSpace=wrap;html=1;shadow=0;strokeWidth=1;fontFamily=Verdana;fontSize=8;dashed=1;fillColor=#fff2cc;strokeColor=#d6b656;" parent="1" vertex="1">
          <mxGeometry x="230" y="180" width="530" height="130" as="geometry"/>
        </mxCell>
        <mxCell id="28vUUWtY91V1V11K80DQ-1" value="" style="edgeStyle=orthogonalEdgeStyle;rounded=0;orthogonalLoop=1;jettySize=auto;html=1;" parent="1" source="28vUUWtY91V1V11K80DQ-2" target="28vUUWtY91V1V11K80DQ-4" edge="1">
          <mxGeometry relative="1" as="geometry"/>
        </mxCell>
        <mxCell id="28vUUWtY91V1V11K80DQ-2" value="司机接单" style="rounded=1;whiteSpace=wrap;html=1;shadow=0;labelBackgroundColor=none;strokeWidth=1;fontFamily=Verdana;fontSize=8;align=center;" parent="1" vertex="1">
          <mxGeometry x="250" y="186" width="70" height="37" as="geometry"/>
        </mxCell>
        <mxCell id="28vUUWtY91V1V11K80DQ-3" value="" style="edgeStyle=orthogonalEdgeStyle;rounded=0;orthogonalLoop=1;jettySize=auto;html=1;" parent="1" source="28vUUWtY91V1V11K80DQ-4" target="28vUUWtY91V1V11K80DQ-6" edge="1">
          <mxGeometry relative="1" as="geometry"/>
        </mxCell>
        <mxCell id="28vUUWtY91V1V11K80DQ-4" value="提货" style="rounded=1;whiteSpace=wrap;html=1;shadow=0;labelBackgroundColor=none;strokeWidth=1;fontFamily=Verdana;fontSize=8;align=center;" parent="1" vertex="1">
          <mxGeometry x="355" y="186" width="70" height="37" as="geometry"/>
        </mxCell>
        <mxCell id="28vUUWtY91V1V11K80DQ-5" value="" style="edgeStyle=orthogonalEdgeStyle;rounded=0;orthogonalLoop=1;jettySize=auto;html=1;" parent="1" source="28vUUWtY91V1V11K80DQ-6" target="28vUUWtY91V1V11K80DQ-7" edge="1">
          <mxGeometry relative="1" as="geometry"/>
        </mxCell>
        <mxCell id="28vUUWtY91V1V11K80DQ-6" value="运输轨迹" style="rounded=1;whiteSpace=wrap;html=1;shadow=0;labelBackgroundColor=none;strokeWidth=1;fontFamily=Verdana;fontSize=8;align=center;" parent="1" vertex="1">
          <mxGeometry x="460" y="186" width="70" height="37" as="geometry"/>
        </mxCell>
        <mxCell id="28vUUWtY91V1V11K80DQ-9" value="" style="edgeStyle=orthogonalEdgeStyle;rounded=0;orthogonalLoop=1;jettySize=auto;html=1;" parent="1" source="28vUUWtY91V1V11K80DQ-7" target="28vUUWtY91V1V11K80DQ-8" edge="1">
          <mxGeometry relative="1" as="geometry"/>
        </mxCell>
        <mxCell id="28vUUWtY91V1V11K80DQ-7" value="运抵" style="rounded=1;whiteSpace=wrap;html=1;shadow=0;labelBackgroundColor=none;strokeWidth=1;fontFamily=Verdana;fontSize=8;align=center;" parent="1" vertex="1">
          <mxGeometry x="565" y="186" width="70" height="37" as="geometry"/>
        </mxCell>
        <mxCell id="28vUUWtY91V1V11K80DQ-15" value="" style="edgeStyle=orthogonalEdgeStyle;rounded=0;orthogonalLoop=1;jettySize=auto;html=1;" parent="1" source="28vUUWtY91V1V11K80DQ-8" target="28vUUWtY91V1V11K80DQ-14" edge="1">
          <mxGeometry relative="1" as="geometry"/>
        </mxCell>
        <mxCell id="28vUUWtY91V1V11K80DQ-8" value="回单" style="rounded=1;whiteSpace=wrap;html=1;shadow=0;labelBackgroundColor=none;strokeWidth=1;fontFamily=Verdana;fontSize=8;align=center;" parent="1" vertex="1">
          <mxGeometry x="565" y="256" width="70" height="37" as="geometry"/>
        </mxCell>
        <mxCell id="28vUUWtY91V1V11K80DQ-39" style="edgeStyle=orthogonalEdgeStyle;rounded=0;orthogonalLoop=1;jettySize=auto;html=1;entryX=0.5;entryY=1;entryDx=0;entryDy=0;" parent="1" source="28vUUWtY91V1V11K80DQ-14" target="28vUUWtY91V1V11K80DQ-38" edge="1">
          <mxGeometry relative="1" as="geometry"/>
        </mxCell>
        <mxCell id="28vUUWtY91V1V11K80DQ-69" style="edgeStyle=orthogonalEdgeStyle;rounded=0;orthogonalLoop=1;jettySize=auto;html=1;entryX=1;entryY=0.5;entryDx=0;entryDy=0;fontFamily=Verdana;fontSize=8;" parent="1" source="28vUUWtY91V1V11K80DQ-14" target="28vUUWtY91V1V11K80DQ-66" edge="1">
          <mxGeometry relative="1" as="geometry"/>
        </mxCell>
        <mxCell id="28vUUWtY91V1V11K80DQ-14" value="货主回单审核" style="rounded=1;whiteSpace=wrap;html=1;shadow=0;labelBackgroundColor=none;strokeWidth=1;fontFamily=Verdana;fontSize=8;align=center;" parent="1" vertex="1">
          <mxGeometry x="565" y="336" width="70" height="37" as="geometry"/>
        </mxCell>
        <mxCell id="28vUUWtY91V1V11K80DQ-63" value="信用评价" style="rounded=1;whiteSpace=wrap;html=1;shadow=0;labelBackgroundColor=none;strokeWidth=1;fontFamily=Verdana;fontSize=8;align=center;" parent="1" vertex="1">
          <mxGeometry x="680" y="431" width="70" height="37" as="geometry"/>
        </mxCell>
        <mxCell id="28vUUWtY91V1V11K80DQ-127" value="" style="edgeStyle=orthogonalEdgeStyle;rounded=0;orthogonalLoop=1;jettySize=auto;html=1;fontFamily=Verdana;fontSize=8;" parent="1" source="28vUUWtY91V1V11K80DQ-30" target="28vUUWtY91V1V11K80DQ-43" edge="1">
          <mxGeometry relative="1" as="geometry"/>
        </mxCell>
        <mxCell id="28vUUWtY91V1V11K80DQ-30" value="在线支付" style="rounded=1;whiteSpace=wrap;html=1;shadow=0;labelBackgroundColor=none;strokeWidth=1;fontFamily=Verdana;fontSize=8;align=center;" parent="1" vertex="1">
          <mxGeometry x="350" y="336" width="70" height="37" as="geometry"/>
        </mxCell>
        <mxCell id="28vUUWtY91V1V11K80DQ-55" value="" style="edgeStyle=orthogonalEdgeStyle;rounded=0;orthogonalLoop=1;jettySize=auto;html=1;" parent="1" source="28vUUWtY91V1V11K80DQ-52" target="28vUUWtY91V1V11K80DQ-54" edge="1">
          <mxGeometry relative="1" as="geometry"/>
        </mxCell>
        <mxCell id="28vUUWtY91V1V11K80DQ-52" value="货主申请开票" style="rounded=1;whiteSpace=wrap;html=1;shadow=0;labelBackgroundColor=none;strokeWidth=1;fontFamily=Verdana;fontSize=8;align=center;" parent="1" vertex="1">
          <mxGeometry x="251" y="424.5" width="70" height="37" as="geometry"/>
        </mxCell>
        <mxCell id="28vUUWtY91V1V11K80DQ-59" style="edgeStyle=orthogonalEdgeStyle;rounded=0;orthogonalLoop=1;jettySize=auto;html=1;entryX=0.5;entryY=1;entryDx=0;entryDy=0;" parent="1" source="28vUUWtY91V1V11K80DQ-54" target="28vUUWtY91V1V11K80DQ-58" edge="1">
          <mxGeometry relative="1" as="geometry"/>
        </mxCell>
        <mxCell id="28vUUWtY91V1V11K80DQ-62" value="" style="edgeStyle=orthogonalEdgeStyle;rounded=0;orthogonalLoop=1;jettySize=auto;html=1;" parent="1" source="28vUUWtY91V1V11K80DQ-54" target="28vUUWtY91V1V11K80DQ-61" edge="1">
          <mxGeometry relative="1" as="geometry"/>
        </mxCell>
        <mxCell id="28vUUWtY91V1V11K80DQ-54" value="平台开票审核" style="rounded=1;whiteSpace=wrap;html=1;shadow=0;labelBackgroundColor=none;strokeWidth=1;fontFamily=Verdana;fontSize=8;align=center;" parent="1" vertex="1">
          <mxGeometry x="251" y="494.5" width="70" height="37" as="geometry"/>
        </mxCell>
        <mxCell id="28vUUWtY91V1V11K80DQ-61" value="开票/邮寄" style="rounded=1;whiteSpace=wrap;html=1;shadow=0;labelBackgroundColor=none;strokeWidth=1;fontFamily=Verdana;fontSize=8;align=center;" parent="1" vertex="1">
          <mxGeometry x="251" y="564.5" width="70" height="37" as="geometry"/>
        </mxCell>
        <mxCell id="28vUUWtY91V1V11K80DQ-128" value="" style="edgeStyle=orthogonalEdgeStyle;rounded=0;orthogonalLoop=1;jettySize=auto;html=1;fontFamily=Verdana;fontSize=8;" parent="1" source="28vUUWtY91V1V11K80DQ-43" target="28vUUWtY91V1V11K80DQ-52" edge="1">
          <mxGeometry relative="1" as="geometry"/>
        </mxCell>
        <mxCell id="28vUUWtY91V1V11K80DQ-43" value="平台收款" style="rounded=1;whiteSpace=wrap;html=1;shadow=0;labelBackgroundColor=none;strokeWidth=1;fontFamily=Verdana;fontSize=8;align=center;" parent="1" vertex="1">
          <mxGeometry x="251" y="336.5" width="70" height="37" as="geometry"/>
        </mxCell>
        <mxCell id="28vUUWtY91V1V11K80DQ-85" value="" style="edgeStyle=orthogonalEdgeStyle;rounded=0;orthogonalLoop=1;jettySize=auto;html=1;fontFamily=Verdana;fontSize=8;" parent="1" source="28vUUWtY91V1V11K80DQ-45" target="28vUUWtY91V1V11K80DQ-84" edge="1">
          <mxGeometry relative="1" as="geometry"/>
        </mxCell>
        <mxCell id="28vUUWtY91V1V11K80DQ-45" value="司机收款" style="rounded=1;whiteSpace=wrap;html=1;shadow=0;labelBackgroundColor=none;strokeWidth=1;fontFamily=Verdana;fontSize=8;align=center;" parent="1" vertex="1">
          <mxGeometry x="140" y="406" width="70" height="37" as="geometry"/>
        </mxCell>
        <mxCell id="28vUUWtY91V1V11K80DQ-84" value="提现" style="rounded=1;whiteSpace=wrap;html=1;shadow=0;labelBackgroundColor=none;strokeWidth=1;fontFamily=Verdana;fontSize=8;align=center;" parent="1" vertex="1">
          <mxGeometry x="140" y="515.5" width="70" height="37" as="geometry"/>
        </mxCell>
        <mxCell id="28vUUWtY91V1V11K80DQ-13" value="" style="edgeStyle=orthogonalEdgeStyle;rounded=0;orthogonalLoop=1;jettySize=auto;html=1;" parent="1" source="28vUUWtY91V1V11K80DQ-10" target="28vUUWtY91V1V11K80DQ-2" edge="1">
          <mxGeometry relative="1" as="geometry"/>
        </mxCell>
        <mxCell id="28vUUWtY91V1V11K80DQ-10" value="司机认证&lt;br&gt;车辆认证" style="rounded=1;whiteSpace=wrap;html=1;shadow=0;labelBackgroundColor=none;strokeWidth=1;fontFamily=Verdana;fontSize=8;align=center;" parent="1" vertex="1">
          <mxGeometry x="145" y="186" width="70" height="37" as="geometry"/>
        </mxCell>
        <mxCell id="28vUUWtY91V1V11K80DQ-29" style="edgeStyle=orthogonalEdgeStyle;rounded=0;orthogonalLoop=1;jettySize=auto;html=1;entryX=0.078;entryY=0.533;entryDx=0;entryDy=0;entryPerimeter=0;" parent="1" source="28vUUWtY91V1V11K80DQ-17" target="6LW1AeHPkMDRcIlr9ZgV-1" edge="1">
          <mxGeometry relative="1" as="geometry"/>
        </mxCell>
        <mxCell id="28vUUWtY91V1V11K80DQ-17" value="发布货源" style="rounded=1;whiteSpace=wrap;html=1;shadow=0;labelBackgroundColor=none;strokeWidth=1;fontFamily=Verdana;fontSize=8;align=center;" parent="1" vertex="1">
          <mxGeometry x="250" y="105" width="70" height="37" as="geometry"/>
        </mxCell>
        <mxCell id="28vUUWtY91V1V11K80DQ-23" value="" style="edgeStyle=orthogonalEdgeStyle;rounded=0;orthogonalLoop=1;jettySize=auto;html=1;" parent="1" source="28vUUWtY91V1V11K80DQ-24" target="28vUUWtY91V1V11K80DQ-17" edge="1">
          <mxGeometry relative="1" as="geometry"/>
        </mxCell>
        <mxCell id="28vUUWtY91V1V11K80DQ-24" value="经纪人认证" style="rounded=1;whiteSpace=wrap;html=1;shadow=0;labelBackgroundColor=none;strokeWidth=1;fontFamily=Verdana;fontSize=8;align=center;" parent="1" vertex="1">
          <mxGeometry x="145" y="105" width="70" height="37" as="geometry"/>
        </mxCell>
        <mxCell id="28vUUWtY91V1V11K80DQ-40" value="" style="edgeStyle=orthogonalEdgeStyle;rounded=0;orthogonalLoop=1;jettySize=auto;html=1;" parent="1" source="28vUUWtY91V1V11K80DQ-38" target="28vUUWtY91V1V11K80DQ-8" edge="1">
          <mxGeometry relative="1" as="geometry"/>
        </mxCell>
        <mxCell id="28vUUWtY91V1V11K80DQ-38" value="回单修改" style="rounded=1;whiteSpace=wrap;html=1;shadow=0;labelBackgroundColor=none;strokeWidth=1;fontFamily=Verdana;fontSize=8;align=center;" parent="1" vertex="1">
          <mxGeometry x="680" y="256" width="70" height="37" as="geometry"/>
        </mxCell>
        <mxCell id="28vUUWtY91V1V11K80DQ-49" value="&lt;span style=&quot;font-family: &amp;#34;verdana&amp;#34; ; font-size: 8px&quot;&gt;货主支付平台运费&lt;/span&gt;" style="text;html=1;strokeColor=none;fillColor=none;align=center;verticalAlign=middle;whiteSpace=wrap;rounded=0;" parent="1" vertex="1">
          <mxGeometry x="425" y="326" width="50" height="20" as="geometry"/>
        </mxCell>
        <mxCell id="28vUUWtY91V1V11K80DQ-131" style="edgeStyle=orthogonalEdgeStyle;rounded=0;orthogonalLoop=1;jettySize=auto;html=1;entryX=1;entryY=0.5;entryDx=0;entryDy=0;fontFamily=Verdana;fontSize=8;" parent="1" source="28vUUWtY91V1V11K80DQ-58" target="28vUUWtY91V1V11K80DQ-52" edge="1">
          <mxGeometry relative="1" as="geometry"/>
        </mxCell>
        <mxCell id="28vUUWtY91V1V11K80DQ-58" value="开票修改" style="rounded=1;whiteSpace=wrap;html=1;shadow=0;labelBackgroundColor=none;strokeWidth=1;fontFamily=Verdana;fontSize=8;align=center;" parent="1" vertex="1">
          <mxGeometry x="370" y="424.5" width="70" height="37" as="geometry"/>
        </mxCell>
        <mxCell id="28vUUWtY91V1V11K80DQ-70" style="edgeStyle=orthogonalEdgeStyle;rounded=0;orthogonalLoop=1;jettySize=auto;html=1;entryX=0.5;entryY=0;entryDx=0;entryDy=0;fontFamily=Verdana;fontSize=8;" parent="1" source="28vUUWtY91V1V11K80DQ-66" target="28vUUWtY91V1V11K80DQ-63" edge="1">
          <mxGeometry relative="1" as="geometry">
            <Array as="points">
              <mxPoint x="495" y="390"/>
              <mxPoint x="715" y="390"/>
            </Array>
          </mxGeometry>
        </mxCell>
        <mxCell id="28vUUWtY91V1V11K80DQ-72" style="edgeStyle=orthogonalEdgeStyle;rounded=0;orthogonalLoop=1;jettySize=auto;html=1;fontFamily=Verdana;fontSize=8;" parent="1" source="28vUUWtY91V1V11K80DQ-66" edge="1">
          <mxGeometry relative="1" as="geometry">
            <mxPoint x="420" y="354.5" as="targetPoint"/>
          </mxGeometry>
        </mxCell>
        <mxCell id="28vUUWtY91V1V11K80DQ-66" value="" style="shape=mxgraph.bpmn.shape;html=1;verticalLabelPosition=bottom;labelBackgroundColor=#ffffff;verticalAlign=top;perimeter=rhombusPerimeter;background=gateway;outline=none;symbol=parallelGw;rounded=1;shadow=0;strokeWidth=1;fontFamily=Verdana;fontSize=8;align=center;" parent="1" vertex="1">
          <mxGeometry x="480" y="339.50000000000006" width="30" height="30" as="geometry"/>
        </mxCell>
        <mxCell id="28vUUWtY91V1V11K80DQ-79" value="不通过" style="text;html=1;strokeColor=none;fillColor=none;align=center;verticalAlign=middle;whiteSpace=wrap;rounded=0;shadow=0;fontFamily=Verdana;fontSize=8;" parent="1" vertex="1">
          <mxGeometry x="658" y="330" width="40" height="20" as="geometry"/>
        </mxCell>
        <mxCell id="28vUUWtY91V1V11K80DQ-80" value="通过" style="text;html=1;strokeColor=none;fillColor=none;align=center;verticalAlign=middle;whiteSpace=wrap;rounded=0;shadow=0;fontFamily=Verdana;fontSize=8;" parent="1" vertex="1">
          <mxGeometry x="518" y="330" width="40" height="20" as="geometry"/>
        </mxCell>
        <mxCell id="28vUUWtY91V1V11K80DQ-87" value="运单监控" style="text;html=1;strokeColor=none;fillColor=none;align=center;verticalAlign=middle;whiteSpace=wrap;rounded=0;shadow=0;dashed=1;fontFamily=Verdana;fontSize=8;fontStyle=1" parent="1" vertex="1">
          <mxGeometry x="240" y="283" width="50" height="20" as="geometry"/>
        </mxCell>
        <mxCell id="28vUUWtY91V1V11K80DQ-99" value="" style="edgeStyle=orthogonalEdgeStyle;rounded=0;orthogonalLoop=1;jettySize=auto;html=1;fontFamily=Verdana;fontSize=8;" parent="1" source="28vUUWtY91V1V11K80DQ-89" target="28vUUWtY91V1V11K80DQ-24" edge="1">
          <mxGeometry relative="1" as="geometry"/>
        </mxCell>
        <mxCell id="28vUUWtY91V1V11K80DQ-89" value="用户注册" style="image;html=1;labelBackgroundColor=#ffffff;image=img/lib/clip_art/people/Suit_Man_Blue_128x128.png;rounded=1;shadow=0;dashed=1;strokeWidth=1;fontFamily=Verdana;fontSize=8;" parent="1" vertex="1">
          <mxGeometry x="70" y="100.5" width="40" height="47" as="geometry"/>
        </mxCell>
        <mxCell id="28vUUWtY91V1V11K80DQ-100" value="" style="edgeStyle=orthogonalEdgeStyle;rounded=0;orthogonalLoop=1;jettySize=auto;html=1;fontFamily=Verdana;fontSize=8;" parent="1" source="28vUUWtY91V1V11K80DQ-90" target="28vUUWtY91V1V11K80DQ-10" edge="1">
          <mxGeometry relative="1" as="geometry"/>
        </mxCell>
        <mxCell id="28vUUWtY91V1V11K80DQ-90" value="用户注册" style="image;html=1;labelBackgroundColor=#ffffff;image=img/lib/clip_art/people/Worker_Man_128x128.png;rounded=1;shadow=0;dashed=1;strokeWidth=1;fontFamily=Verdana;fontSize=8;" parent="1" vertex="1">
          <mxGeometry x="65" y="183" width="50" height="43" as="geometry"/>
        </mxCell>
        <mxCell id="28vUUWtY91V1V11K80DQ-98" value="" style="edgeStyle=orthogonalEdgeStyle;rounded=0;orthogonalLoop=1;jettySize=auto;html=1;fontFamily=Verdana;fontSize=8;" parent="1" source="28vUUWtY91V1V11K80DQ-94" target="28vUUWtY91V1V11K80DQ-96" edge="1">
          <mxGeometry relative="1" as="geometry"/>
        </mxCell>
        <mxCell id="28vUUWtY91V1V11K80DQ-94" value="用户注册" style="image;html=1;labelBackgroundColor=#ffffff;image=img/lib/clip_art/people/Suit_Man_128x128.png;rounded=1;shadow=0;dashed=1;strokeWidth=1;fontFamily=Verdana;fontSize=8;" parent="1" vertex="1">
          <mxGeometry x="60" y="21" width="55" height="39" as="geometry"/>
        </mxCell>
        <mxCell id="28vUUWtY91V1V11K80DQ-107" style="edgeStyle=orthogonalEdgeStyle;rounded=0;orthogonalLoop=1;jettySize=auto;html=1;entryX=0;entryY=0.5;entryDx=0;entryDy=0;fontFamily=Verdana;fontSize=8;" parent="1" source="28vUUWtY91V1V11K80DQ-96" target="28vUUWtY91V1V11K80DQ-105" edge="1">
          <mxGeometry relative="1" as="geometry"/>
        </mxCell>
        <mxCell id="28vUUWtY91V1V11K80DQ-96" value="企业货主认证" style="rounded=1;whiteSpace=wrap;html=1;shadow=0;labelBackgroundColor=none;strokeWidth=1;fontFamily=Verdana;fontSize=8;align=center;" parent="1" vertex="1">
          <mxGeometry x="143" y="22" width="70" height="37" as="geometry"/>
        </mxCell>
        <mxCell id="28vUUWtY91V1V11K80DQ-108" style="edgeStyle=orthogonalEdgeStyle;rounded=0;orthogonalLoop=1;jettySize=auto;html=1;entryX=0.5;entryY=0;entryDx=0;entryDy=0;fontFamily=Verdana;fontSize=8;" parent="1" source="28vUUWtY91V1V11K80DQ-105" target="28vUUWtY91V1V11K80DQ-17" edge="1">
          <mxGeometry relative="1" as="geometry"/>
        </mxCell>
        <mxCell id="28vUUWtY91V1V11K80DQ-113" value="" style="edgeStyle=orthogonalEdgeStyle;rounded=0;orthogonalLoop=1;jettySize=auto;html=1;fontFamily=Verdana;fontSize=8;" parent="1" source="28vUUWtY91V1V11K80DQ-105" target="28vUUWtY91V1V11K80DQ-112" edge="1">
          <mxGeometry relative="1" as="geometry"/>
        </mxCell>
        <mxCell id="28vUUWtY91V1V11K80DQ-105" value="" style="shape=mxgraph.bpmn.shape;html=1;verticalLabelPosition=bottom;labelBackgroundColor=#ffffff;verticalAlign=top;perimeter=rhombusPerimeter;background=gateway;outline=none;symbol=parallelGw;rounded=1;shadow=0;strokeWidth=1;fontFamily=Verdana;fontSize=8;align=center;" parent="1" vertex="1">
          <mxGeometry x="270" y="25.500000000000057" width="30" height="30" as="geometry"/>
        </mxCell>
        <mxCell id="28vUUWtY91V1V11K80DQ-109" value="委托" style="text;html=1;fontSize=8;fontFamily=Verdana;" parent="1" vertex="1">
          <mxGeometry x="290" y="56" width="50" height="28" as="geometry"/>
        </mxCell>
        <mxCell id="6LW1AeHPkMDRcIlr9ZgV-6" value="" style="edgeStyle=orthogonalEdgeStyle;rounded=0;orthogonalLoop=1;jettySize=auto;html=1;" edge="1" parent="1" source="28vUUWtY91V1V11K80DQ-112" target="6LW1AeHPkMDRcIlr9ZgV-1">
          <mxGeometry relative="1" as="geometry"/>
        </mxCell>
        <mxCell id="28vUUWtY91V1V11K80DQ-112" value="发布货源" style="rounded=1;whiteSpace=wrap;html=1;shadow=0;labelBackgroundColor=none;strokeWidth=1;fontFamily=Verdana;fontSize=8;align=center;" parent="1" vertex="1">
          <mxGeometry x="368.5" y="22" width="70" height="37" as="geometry"/>
        </mxCell>
        <mxCell id="28vUUWtY91V1V11K80DQ-116" value="" style="endArrow=none;dashed=1;html=1;fontFamily=Verdana;fontSize=8;fillColor=#d5e8d4;strokeColor=#82b366;" parent="1" edge="1">
          <mxGeometry width="50" height="50" relative="1" as="geometry">
            <mxPoint x="10" y="83.5" as="sourcePoint"/>
            <mxPoint x="760" y="83.5" as="targetPoint"/>
          </mxGeometry>
        </mxCell>
        <mxCell id="28vUUWtY91V1V11K80DQ-117" value="" style="endArrow=none;dashed=1;html=1;fontFamily=Verdana;fontSize=8;fillColor=#d5e8d4;strokeColor=#82b366;" parent="1" edge="1">
          <mxGeometry width="50" height="50" relative="1" as="geometry">
            <mxPoint x="10" y="176" as="sourcePoint"/>
            <mxPoint x="760" y="176" as="targetPoint"/>
          </mxGeometry>
        </mxCell>
        <mxCell id="28vUUWtY91V1V11K80DQ-120" value="开票流程" style="text;html=1;strokeColor=none;fillColor=none;align=center;verticalAlign=middle;whiteSpace=wrap;rounded=0;shadow=0;dashed=1;fontFamily=Verdana;fontSize=8;fontStyle=1" parent="1" vertex="1">
          <mxGeometry x="378" y="540" width="50" height="20" as="geometry"/>
        </mxCell>
        <mxCell id="28vUUWtY91V1V11K80DQ-122" value="税率管理" style="rounded=1;whiteSpace=wrap;html=1;shadow=0;labelBackgroundColor=none;strokeWidth=1;fontFamily=Verdana;fontSize=8;align=center;" parent="1" vertex="1">
          <mxGeometry x="370" y="560" width="70" height="37" as="geometry"/>
        </mxCell>
        <mxCell id="28vUUWtY91V1V11K80DQ-123" value="提交审核数据" style="text;html=1;strokeColor=none;fillColor=none;align=center;verticalAlign=middle;whiteSpace=wrap;rounded=0;shadow=0;dashed=1;fontFamily=Verdana;fontSize=8;" parent="1" vertex="1">
          <mxGeometry x="294" y="468" width="40" height="20" as="geometry"/>
        </mxCell>
        <mxCell id="28vUUWtY91V1V11K80DQ-138" style="edgeStyle=orthogonalEdgeStyle;rounded=0;orthogonalLoop=1;jettySize=auto;html=1;entryX=0.5;entryY=0;entryDx=0;entryDy=0;fontFamily=Verdana;fontSize=8;" parent="1" source="28vUUWtY91V1V11K80DQ-129" target="28vUUWtY91V1V11K80DQ-137" edge="1">
          <mxGeometry relative="1" as="geometry"/>
        </mxCell>
        <mxCell id="tZ4Hf1nv5zvD5JX4E7_J-5" value="" style="edgeStyle=orthogonalEdgeStyle;rounded=0;orthogonalLoop=1;jettySize=auto;html=1;" parent="1" source="28vUUWtY91V1V11K80DQ-129" target="28vUUWtY91V1V11K80DQ-45" edge="1">
          <mxGeometry relative="1" as="geometry"/>
        </mxCell>
        <mxCell id="28vUUWtY91V1V11K80DQ-129" value="经纪人收款" style="rounded=1;whiteSpace=wrap;html=1;shadow=0;labelBackgroundColor=none;strokeWidth=1;fontFamily=Verdana;fontSize=8;align=center;" parent="1" vertex="1">
          <mxGeometry x="29" y="406" width="70" height="37" as="geometry"/>
        </mxCell>
        <mxCell id="28vUUWtY91V1V11K80DQ-136" style="edgeStyle=orthogonalEdgeStyle;rounded=0;orthogonalLoop=1;jettySize=auto;html=1;entryX=0.5;entryY=0;entryDx=0;entryDy=0;fontFamily=Verdana;fontSize=8;" parent="1" target="28vUUWtY91V1V11K80DQ-129" edge="1">
          <mxGeometry relative="1" as="geometry">
            <mxPoint x="250" y="355" as="sourcePoint"/>
          </mxGeometry>
        </mxCell>
        <mxCell id="28vUUWtY91V1V11K80DQ-137" value="提现" style="rounded=1;whiteSpace=wrap;html=1;shadow=0;labelBackgroundColor=none;strokeWidth=1;fontFamily=Verdana;fontSize=8;align=center;" parent="1" vertex="1">
          <mxGeometry x="29" y="514.5" width="70" height="37" as="geometry"/>
        </mxCell>
        <mxCell id="28vUUWtY91V1V11K80DQ-139" value="财务审核" style="text;html=1;strokeColor=none;fillColor=none;align=center;verticalAlign=middle;whiteSpace=wrap;rounded=0;shadow=0;dashed=1;fontFamily=Verdana;fontSize=8;" parent="1" vertex="1">
          <mxGeometry x="119" y="330" width="59" height="20" as="geometry"/>
        </mxCell>
        <mxCell id="28vUUWtY91V1V11K80DQ-143" value="" style="endArrow=none;dashed=1;html=1;fontFamily=Verdana;fontSize=8;fillColor=#d5e8d4;strokeColor=#82b366;" parent="1" edge="1">
          <mxGeometry width="50" height="50" relative="1" as="geometry">
            <mxPoint x="9" y="630" as="sourcePoint"/>
            <mxPoint x="759" y="630" as="targetPoint"/>
          </mxGeometry>
        </mxCell>
        <mxCell id="28vUUWtY91V1V11K80DQ-144" value="" style="endArrow=none;dashed=1;html=1;fontFamily=Verdana;fontSize=8;fillColor=#d5e8d4;strokeColor=#82b366;" parent="1" edge="1">
          <mxGeometry width="50" height="50" relative="1" as="geometry">
            <mxPoint x="8" y="320" as="sourcePoint"/>
            <mxPoint x="758" y="320" as="targetPoint"/>
          </mxGeometry>
        </mxCell>
        <mxCell id="tZ4Hf1nv5zvD5JX4E7_J-1" value="多笔运单" style="text;html=1;strokeColor=none;fillColor=none;align=center;verticalAlign=middle;whiteSpace=wrap;rounded=0;" parent="1" vertex="1">
          <mxGeometry x="425" y="365" width="55" height="20" as="geometry"/>
        </mxCell>
        <mxCell id="tZ4Hf1nv5zvD5JX4E7_J-2" value="" style="shape=link;html=1;" parent="1" edge="1">
          <mxGeometry width="50" height="50" relative="1" as="geometry">
            <mxPoint x="423" y="361" as="sourcePoint"/>
            <mxPoint x="483" y="361" as="targetPoint"/>
          </mxGeometry>
        </mxCell>
        <mxCell id="6LW1AeHPkMDRcIlr9ZgV-7" style="edgeStyle=orthogonalEdgeStyle;rounded=0;orthogonalLoop=1;jettySize=auto;html=1;entryX=0.5;entryY=0;entryDx=0;entryDy=0;exitX=0.55;exitY=0.95;exitDx=0;exitDy=0;exitPerimeter=0;" edge="1" parent="1" source="6LW1AeHPkMDRcIlr9ZgV-1" target="28vUUWtY91V1V11K80DQ-2">
          <mxGeometry relative="1" as="geometry">
            <Array as="points">
              <mxPoint x="285" y="150"/>
            </Array>
          </mxGeometry>
        </mxCell>
        <mxCell id="6LW1AeHPkMDRcIlr9ZgV-1" value="车货匹配&lt;br&gt;竞价抢单" style="ellipse;shape=cloud;whiteSpace=wrap;html=1;" vertex="1" parent="1">
          <mxGeometry x="352" y="92.5" width="103" height="60" as="geometry"/>
        </mxCell>
      </root>
    </mxGraphModel>
  </diagram>
</mxfile>
